{
    "asset" : {
        "generator" : "Khronos glTF Blender I/O v3.4.50",
        "version" : "2.0"
    },
    "scene" : 0,
    "scenes" : [
        {
            "name" : "Scene",
            "nodes" : [
                4
            ]
        }
    ],
    "nodes" : [
        {
            "name" : "Bone.001",
            "rotation" : [
                9.215623056335609e-12,
                -3.178649166102332e-08,
                0.0002899225801229477,
                1
            ],
            "scale" : [
                0.9999999403953552,
                1,
                1
            ],
            "translation" : [
                4.2781058695595675e-09,
                4.187076568603516,
                -0.027977414429187775
            ]
        },
        {
            "children" : [
                0
            ],
            "name" : "Bone",
            "rotation" : [
                0.7071068286895752,
                5.338507946817117e-08,
                5.338508302088485e-08,
                0.7071068286895752
            ],
            "translation" : [
                -8.376180066389793e-15,
                -1.3597299641787686e-07,
                -4.1803297996521
            ]
        },
        {
            "mesh" : 0,
            "name" : "Cylinder",
            "skin" : 0
        },
        {
            "children" : [
                2,
                1
            ],
            "name" : "Armature",
            "rotation" : [
                0,
                0,
                -0.7071068286895752,
                0.7071067094802856
            ],
            "translation" : [
                0,
                0,
                3.9637269973754883
            ]
        },
        {
            "children" : [
                3
            ],
            "name" : "Z_UP",
            "rotation" : [
                -0.70710688829422,
                0,
                0,
                0.7071066498756409
            ]
        }
    ],
    "animations" : [
        {
            "channels" : [
                {
                    "sampler" : 0,
                    "target" : {
                        "node" : 1,
                        "path" : "translation"
                    }
                },
                {
                    "sampler" : 1,
                    "target" : {
                        "node" : 1,
                        "path" : "rotation"
                    }
                },
                {
                    "sampler" : 2,
                    "target" : {
                        "node" : 1,
                        "path" : "scale"
                    }
                },
                {
                    "sampler" : 3,
                    "target" : {
                        "node" : 0,
                        "path" : "translation"
                    }
                },
                {
                    "sampler" : 4,
                    "target" : {
                        "node" : 0,
                        "path" : "rotation"
                    }
                },
                {
                    "sampler" : 5,
                    "target" : {
                        "node" : 0,
                        "path" : "scale"
                    }
                }
            ],
            "name" : "Anim_0_Armature",
            "samplers" : [
                {
                    "input" : 6,
                    "interpolation" : "LINEAR",
                    "output" : 7
                },
                {
                    "input" : 6,
                    "interpolation" : "LINEAR",
                    "output" : 8
                },
                {
                    "input" : 6,
                    "interpolation" : "LINEAR",
                    "output" : 9
                },
                {
                    "input" : 6,
                    "interpolation" : "LINEAR",
                    "output" : 10
                },
                {
                    "input" : 6,
                    "interpolation" : "LINEAR",
                    "output" : 11
                },
                {
                    "input" : 6,
                    "interpolation" : "LINEAR",
                    "output" : 12
                }
            ]
        },
        {
            "channels" : [
                {
                    "sampler" : 0,
                    "target" : {
                        "node" : 1,
                        "path" : "translation"
                    }
                },
                {
                    "sampler" : 1,
                    "target" : {
                        "node" : 1,
                        "path" : "rotation"
                    }
                },
                {
                    "sampler" : 2,
                    "target" : {
                        "node" : 1,
                        "path" : "scale"
                    }
                },
                {
                    "sampler" : 3,
                    "target" : {
                        "node" : 0,
                        "path" : "translation"
                    }
                },
                {
                    "sampler" : 4,
                    "target" : {
                        "node" : 0,
                        "path" : "rotation"
                    }
                },
                {
                    "sampler" : 5,
                    "target" : {
                        "node" : 0,
                        "path" : "scale"
                    }
                }
            ],
            "name" : "Anim_0",
            "samplers" : [
                {
                    "input" : 6,
                    "interpolation" : "LINEAR",
                    "output" : 13
                },
                {
                    "input" : 6,
                    "interpolation" : "LINEAR",
                    "output" : 14
                },
                {
                    "input" : 6,
                    "interpolation" : "LINEAR",
                    "output" : 15
                },
                {
                    "input" : 6,
                    "interpolation" : "LINEAR",
                    "output" : 16
                },
                {
                    "input" : 6,
                    "interpolation" : "LINEAR",
                    "output" : 17
                },
                {
                    "input" : 6,
                    "interpolation" : "LINEAR",
                    "output" : 18
                }
            ]
        }
    ],
    "materials" : [
        {
            "name" : "Material_001-effect.001",
            "pbrMetallicRoughness" : {
                "baseColorFactor" : [
                    0.27963539958000183,
                    0.6399999856948853,
                    0.21094390749931335,
                    1
                ],
                "metallicFactor" : 0
            }
        }
    ],
    "meshes" : [
        {
            "name" : "Cylinder.001",
            "primitives" : [
                {
                    "attributes" : {
                        "POSITION" : 0,
                        "NORMAL" : 1,
                        "JOINTS_0" : 2,
                        "WEIGHTS_0" : 3
                    },
                    "indices" : 4,
                    "material" : 0
                }
            ]
        }
    ],
    "skins" : [
        {
            "inverseBindMatrices" : 5,
            "joints" : [
                1,
                0
            ],
            "name" : "Armature"
        }
    ],
    "accessors" : [
        {
            "bufferView" : 0,
            "componentType" : 5126,
            "count" : 237,
            "max" : [
                1.0000001192092896,
                9.162397384643555,
                1.0000003576278687
            ],
            "min" : [
                -1.0000001192092896,
                0.012242114171385765,
                -0.9999995827674866
            ],
            "type" : "VEC3"
        },
        {
            "bufferView" : 1,
            "componentType" : 5126,
            "count" : 237,
            "type" : "VEC3"
        },
        {
            "bufferView" : 2,
            "componentType" : 5121,
            "count" : 237,
            "type" : "VEC4"
        },
        {
            "bufferView" : 3,
            "componentType" : 5126,
            "count" : 237,
            "type" : "VEC4"
        },
        {
            "bufferView" : 4,
            "componentType" : 5123,
            "count" : 564,
            "type" : "SCALAR"
        },
        {
            "bufferView" : 5,
            "componentType" : 5126,
            "count" : 2,
            "type" : "MAT4"
        },
        {
            "bufferView" : 6,
            "componentType" : 5126,
            "count" : 49,
            "max" : [
                2.041666619479656
            ],
            "min" : [
                0.04166661947965622
            ],
            "type" : "SCALAR"
        },
        {
            "bufferView" : 7,
            "componentType" : 5126,
            "count" : 49,
            "type" : "VEC3"
        },
        {
            "bufferView" : 8,
            "componentType" : 5126,
            "count" : 49,
            "type" : "VEC4"
        },
        {
            "bufferView" : 9,
            "componentType" : 5126,
            "count" : 49,
            "type" : "VEC3"
        },
        {
            "bufferView" : 10,
            "componentType" : 5126,
            "count" : 49,
            "type" : "VEC3"
        },
        {
            "bufferView" : 11,
            "componentType" : 5126,
            "count" : 49,
            "type" : "VEC4"
        },
        {
            "bufferView" : 12,
            "componentType" : 5126,
            "count" : 49,
            "type" : "VEC3"
        },
        {
            "bufferView" : 13,
            "componentType" : 5126,
            "count" : 49,
            "type" : "VEC3"
        },
        {
            "bufferView" : 14,
            "componentType" : 5126,
            "count" : 49,
            "type" : "VEC4"
        },
        {
            "bufferView" : 15,
            "componentType" : 5126,
            "count" : 49,
            "type" : "VEC3"
        },
        {
            "bufferView" : 16,
            "componentType" : 5126,
            "count" : 49,
            "type" : "VEC3"
        },
        {
            "bufferView" : 17,
            "componentType" : 5126,
            "count" : 49,
            "type" : "VEC4"
        },
        {
            "bufferView" : 18,
            "componentType" : 5126,
            "count" : 49,
            "type" : "VEC3"
        }
    ],
    "bufferViews" : [
        {
            "buffer" : 0,
            "byteLength" : 2844,
            "byteOffset" : 0,
            "target" : 34962
        },
        {
            "buffer" : 0,
            "byteLength" : 2844,
            "byteOffset" : 2844,
            "target" : 34962
        },
        {
            "buffer" : 0,
            "byteLength" : 948,
            "byteOffset" : 5688,
            "target" : 34962
        },
        {
            "buffer" : 0,
            "byteLength" : 3792,
            "byteOffset" : 6636,
            "target" : 34962
        },
        {
            "buffer" : 0,
            "byteLength" : 1128,
            "byteOffset" : 10428,
            "target" : 34963
        },
        {
            "buffer" : 0,
            "byteLength" : 128,
            "byteOffset" : 11556
        },
        {
            "buffer" : 0,
            "byteLength" : 196,
            "byteOffset" : 11684
        },
        {
            "buffer" : 0,
            "byteLength" : 588,
            "byteOffset" : 11880
        },
        {
            "buffer" : 0,
            "byteLength" : 784,
            "byteOffset" : 12468
        },
        {
            "buffer" : 0,
            "byteLength" : 588,
            "byteOffset" : 13252
        },
        {
            "buffer" : 0,
            "byteLength" : 588,
            "byteOffset" : 13840
        },
        {
            "buffer" : 0,
            "byteLength" : 784,
            "byteOffset" : 14428
        },
        {
            "buffer" : 0,
            "byteLength" : 588,
            "byteOffset" : 15212
        },
        {
            "buffer" : 0,
            "byteLength" : 588,
            "byteOffset" : 15800
        },
        {
            "buffer" : 0,
            "byteLength" : 784,
            "byteOffset" : 16388
        },
        {
            "buffer" : 0,
            "byteLength" : 588,
            "byteOffset" : 17172
        },
        {
            "buffer" : 0,
            "byteLength" : 588,
            "byteOffset" : 17760
        },
        {
            "buffer" : 0,
            "byteLength" : 784,
            "byteOffset" : 18348
        },
        {
            "buffer" : 0,
            "byteLength" : 588,
            "byteOffset" : 19132
        }
    ],
    "buffers" : [
        {
            "byteLength" : 19720,
            "uri" : "untitled.bin"
        }
    ]
}
